<?xml version="1.0" encoding="UTF-8"?>
<!DOCTYPE svg PUBLIC "-//W3C//DTD SVG 1.1//EN" "http://www.w3.org/Graphics/SVG/1.1/DTD/svg11.dtd">
<!-- Creator: CorelDRAW -->
<svg xmlns="http://www.w3.org/2000/svg" xml:space="preserve" width="90mm" height="60mm" style="shape-rendering:geometricPrecision; text-rendering:geometricPrecision; image-rendering:optimizeQuality; fill-rule:evenodd; clip-rule:evenodd"
viewBox="0 0 90 60"
 xmlns:xlink="http://www.w3.org/1999/xlink">
 <defs>
  <style type="text/css">
   <![CDATA[
    .fil0 {fill:#DEDEDD}
    .fil2 {fill:white}
    .fil1 {fill:#28875E}
   ]]>
  </style>
 </defs>
 <g id="Ebene_x0020_1">
  <metadata id="CorelCorpID_0Corel-Layer"/>
  <rect class="fil0" x="4.2324" y="2.6286" width="81.2124" height="54.5814"/>
  <path class="fil1" d="M29.4447 51.4011c0,0.6145 0.1085,1.0555 0.3269,1.3238 0.2177,0.2675 0.5168,0.402 0.8926,0.402 0.3865,0 0.6869,-0.1317 0.898,-0.3936 0.2115,-0.2627 0.3186,-0.7347 0.3186,-1.4143 0,-0.5733 -0.1111,-0.9917 -0.3322,-1.2558 -0.2203,-0.2633 -0.5209,-0.395 -0.9007,-0.395 -0.3621,0 -0.6538,0.1338 -0.8736,0.4021 -0.219,0.2676 -0.3296,0.7121 -0.3296,1.3308zm-1.8012 -0.0084c0,-0.9925 0.2662,-1.7658 0.7949,-2.3177 0.53,-0.5531 1.2681,-0.8296 2.2136,-0.8296 0.9698,0 1.7176,0.2722 2.242,0.8155 0.5233,0.5418 0.7868,1.3038 0.7868,2.2822 0,0.7107 -0.1153,1.294 -0.3445,1.7484 -0.2293,0.4545 -0.5603,0.8091 -0.9929,1.0619 -0.4334,0.2533 -0.9725,0.3794 -1.6195,0.3794 -0.6566,0 -1.2012,-0.1086 -1.6318,-0.3271 -0.4301,-0.2182 -0.7793,-0.5649 -1.0471,-1.0377 -0.2674,-0.4723 -0.4015,-1.0646 -0.4015,-1.7753zm8.9252 -0.5805l0.7596 0c0.0814,0 0.2399,-0.0289 0.4761,-0.0822 0.1187,-0.0268 0.2179,-0.0891 0.2931,-0.1911 0.0747,-0.1013 0.1125,-0.2195 0.1125,-0.3525 0,-0.1968 -0.0604,-0.3467 -0.179,-0.4516 -0.1195,-0.1056 -0.3438,-0.1586 -0.6715,-0.1586l-0.7908 0 0 1.236zm-1.8081 3.6172l0 -6.0806 3.0004 0c0.5561,0 0.9821,0.0506 1.275,0.15 0.2937,0.0997 0.5318,0.2837 0.7122,0.5535 0.1797,0.269 0.2699,0.5976 0.2699,0.984 0,0.3384 -0.069,0.6292 -0.2062,0.8735 -0.1375,0.245 -0.328,0.4444 -0.5684,0.5961 -0.1537,0.0969 -0.3648,0.177 -0.632,0.2392 0.2143,0.0751 0.3707,0.1504 0.4693,0.2252 0.0648,0.0492 0.162,0.1558 0.2875,0.3185 0.1263,0.1637 0.2089,0.2902 0.2523,0.378l0.8708 1.7626 -2.0346 0 -0.9616 -1.8589c-0.1233,-0.2385 -0.2303,-0.3976 -0.3269,-0.4686 -0.1279,-0.094 -0.2773,-0.1402 -0.4409,-0.1402l-0.1587 0 0 2.4677 -1.8081 0zm8.2172 -4.7031l0 3.3213 0.4409 0c0.3771,0 0.6441,-0.0433 0.8029,-0.1302 0.1583,-0.0867 0.2844,-0.2393 0.3744,-0.4559 0.0898,-0.2161 0.1343,-0.5692 0.1343,-1.0562 0,-0.6441 -0.1001,-1.085 -0.3011,-1.3223 -0.2013,-0.2379 -0.5363,-0.3567 -1.0024,-0.3567l-0.449 0zm-1.7999 -1.3775l2.6749 0c0.5262,0 0.9528,0.0744 1.2777,0.2237 0.3243,0.1489 0.5932,0.3639 0.8043,0.6427 0.2117,0.2799 0.3659,0.6046 0.4612,0.9755 0.0953,0.3705 0.1424,0.763 0.1424,1.1779 0,0.6498 -0.0713,1.1538 -0.2129,1.512 -0.1414,0.3576 -0.3387,0.6579 -0.59,0.899 -0.2514,0.2412 -0.5213,0.4037 -0.8099,0.4842 -0.3945,0.1101 -0.7533,0.1656 -1.0728,0.1656l-2.6749 0 0 -6.0806zm6.3902 0l4.8234 0 0 1.2982 -3.0195 0 0 0.9669 2.8011 0 0 1.2403 -2.8011 0 0 1.1977 3.1076 0 0 1.3775 -4.9115 0 0 -6.0806zm7.7994 2.4634l0.7596 0c0.0814,0 0.2398,-0.0287 0.4761,-0.0822 0.1188,-0.0269 0.2178,-0.0889 0.2931,-0.1911 0.0748,-0.1014 0.1125,-0.2195 0.1125,-0.3525 0,-0.1968 -0.0603,-0.3466 -0.179,-0.4516 -0.1197,-0.1056 -0.3436,-0.1586 -0.6715,-0.1586l-0.7908 0 0 1.236zm-1.808 3.6172l0 -6.0806 3.0003 0c0.5561,0 0.9819,0.0506 1.275,0.15 0.2938,0.0998 0.5317,0.2835 0.7122,0.5535 0.1799,0.2691 0.2699,0.5976 0.2699,0.984 0,0.3384 -0.0689,0.629 -0.2062,0.8735 -0.1376,0.245 -0.3279,0.4443 -0.5684,0.5961 -0.1538,0.0971 -0.3648,0.177 -0.632,0.2392 0.2143,0.0751 0.3706,0.1502 0.4693,0.2252 0.065,0.0493 0.1618,0.1557 0.2875,0.3185 0.1264,0.1638 0.2088,0.2899 0.2523,0.378l0.8708 1.7626 -2.0346 0 -0.9616 -1.8589c-0.1233,-0.2385 -0.2302,-0.3974 -0.3269,-0.4686 -0.1281,-0.0941 -0.2771,-0.1402 -0.4409,-0.1402l-0.1587 0 0 2.4677 -1.808 0zm6.3901 -6.0806l4.8234 0 0 1.2982 -3.0194 0 0 0.9669 2.8009 0 0 1.2403 -2.8009 0 0 1.1977 3.1075 0 0 1.3775 -4.9115 0 0 -6.0806zm5.967 0l1.8012 0 0 4.5828 2.8092 0 0 1.4978 -4.6104 0 0 -6.0806zm7.3355 4.7739l0.9183 0c0.3107,0 0.5288,-0.0571 0.6551,-0.1713 0.1272,-0.1151 0.1913,-0.269 0.1913,-0.463 0,-0.1797 -0.0624,-0.3243 -0.1885,-0.4332 -0.1261,-0.109 -0.346,-0.1642 -0.662,-0.1642l-0.9142 0 0 1.2317zm0 -2.3884l0.7827 0c0.2808,0 0.4768,-0.0503 0.5873,-0.1515 0.1105,-0.1011 0.1641,-0.2477 0.1641,-0.4374 0,-0.1771 -0.0543,-0.3157 -0.1641,-0.4149 -0.1112,-0.1004 -0.3025,-0.15 -0.5751,-0.15l-0.7949 0 0 1.1538zm-1.8162 -2.3855l3.3707 0c0.5615,0 0.9926,0.1461 1.2926,0.436 0.3008,0.2905 0.4517,0.6499 0.4517,1.0774 0,0.3596 -0.1067,0.6687 -0.3214,0.9259 -0.1433,0.1716 -0.3528,0.3072 -0.6281,0.4063 0.4178,0.1048 0.7266,0.2854 0.9238,0.5408 0.1973,0.2556 0.2956,0.5776 0.2956,0.9642 0,0.3157 -0.0701,0.5992 -0.2102,0.8508 -0.1405,0.2523 -0.3324,0.4504 -0.5765,0.5975 -0.1504,0.0907 -0.3785,0.1569 -0.6836,0.1982 -0.4056,0.0548 -0.6743,0.0835 -0.8071,0.0835l-3.1075 0 0 -6.0806zm6.4105 0l4.8233 0 0 1.2982 -3.0193 0 0 0.9669 2.8009 0 0 1.2403 -2.8009 0 0 1.1977 3.1075 0 0 1.3775 -4.9115 0 0 -6.0806zm-65.9633 -0.0259l6.1326 0 0 6.1326 -6.1326 0 0 -6.1326zm42.8472 -2.1776c6.8939,0 6.1972,-3.9692 13.6133,-3.9692 7.4162,0 6.3717,3.9692 13.2655,3.9692l1.149 0 0 -32.5893 -75.5194 0 0 32.5893c2.6628,-3.4481 6.0136,-3.9956 8.6656,-3.9692 7.1136,0.071 6.6164,3.9692 12.1211,3.9692 6.8939,0 6.371,-3.9692 13.7872,-3.9692 7.4161,0 6.0238,3.9692 12.9177,3.9692zm-45.713 -37.9824l0.4388 0c0.3457,0 0.5882,-0.0626 0.7278,-0.1884 0.1388,-0.1251 0.2093,-0.2873 0.2093,-0.4827 0,-0.1912 -0.0615,-0.3533 -0.1824,-0.4856 -0.1208,-0.1323 -0.3494,-0.1996 -0.6831,-0.1996l-0.5104 0 0 1.3563zm-1.7998 -2.5923l2.9785 0c0.6481,0 1.1344,0.1623 1.4568,0.4856 0.3218,0.3226 0.4849,0.7844 0.4849,1.3804 0,0.6143 -0.1756,1.0943 -0.5281,1.4398 -0.3523,0.3454 -0.8908,0.5181 -1.6121,0.5181l-0.9802 0 0 2.2567 -1.7998 0 0 -6.0806zm7.5113 3.0523c0,0.6145 0.1082,1.0557 0.3255,1.3238 0.2164,0.2674 0.5145,0.4021 0.8884,0.4021 0.3849,0 0.684,-0.1319 0.8939,-0.3937 0.2105,-0.2625 0.3172,-0.7347 0.3172,-1.4143 0,-0.5733 -0.1108,-0.9919 -0.3307,-1.2558 -0.2192,-0.2631 -0.5185,-0.395 -0.8966,-0.395 -0.3604,0 -0.6509,0.134 -0.8695,0.4022 -0.2179,0.2673 -0.3282,0.7121 -0.3282,1.3307zm-1.793 -0.0084c0,-0.9925 0.2652,-1.7659 0.7913,-2.3176 0.5274,-0.553 1.2623,-0.8297 2.2034,-0.8297 0.9655,0 1.7099,0.2724 2.2319,0.8155 0.5207,0.5417 0.7832,1.3039 0.7832,2.2822 0,0.7107 -0.1153,1.2945 -0.343,1.7485 -0.2277,0.4539 -0.558,0.8091 -0.9884,1.0618 -0.4312,0.2531 -0.968,0.3794 -1.6121,0.3794 -0.6535,0 -1.1958,-0.1087 -1.6243,-0.3271 -0.4279,-0.218 -0.776,-0.5651 -1.0423,-1.0377 -0.266,-0.4721 -0.3997,-1.0646 -0.3997,-1.7753zm7.0726 -3.0439l1.6742 0 2.1833 3.3638 0 -3.3638 1.6892 0 0 6.0806 -1.6892 0 -2.1725 -3.3383 0 3.3383 -1.685 0 0 -6.0806zm6.4163 0l5.4467 0 0 1.5021 -1.8281 0 0 4.5785 -1.7918 0 0 -4.5785 -1.8268 0 0 -1.5021zm7.6343 3.0523c0,0.6145 0.1081,1.0555 0.3254,1.3238 0.2166,0.2675 0.5144,0.4021 0.8885,0.4021 0.3847,0 0.6839,-0.1318 0.8939,-0.3937 0.2106,-0.2625 0.3172,-0.7347 0.3172,-1.4143 0,-0.5733 -0.1108,-0.9917 -0.3309,-1.2558 -0.2193,-0.2632 -0.5184,-0.395 -0.8964,-0.395 -0.3605,0 -0.6509,0.1338 -0.8697,0.4022 -0.2179,0.2674 -0.328,0.7121 -0.328,1.3307zm-1.7931 -0.0084c0,-0.9925 0.265,-1.7659 0.7913,-2.3176 0.5276,-0.5532 1.2624,-0.8297 2.2035,-0.8297 0.9654,0 1.7097,0.2723 2.2319,0.8155 0.5207,0.5419 0.783,1.3039 0.783,2.2822 0,0.7107 -0.1151,1.2944 -0.3429,1.7485 -0.2277,0.4541 -0.5579,0.809 -0.9883,1.0618 -0.4315,0.2533 -0.9679,0.3794 -1.6121,0.3794 -0.6536,0 -1.1957,-0.1087 -1.6243,-0.3271 -0.4281,-0.2182 -0.776,-0.565 -1.0424,-1.0377 -0.2661,-0.4722 -0.3997,-1.0646 -0.3997,-1.7753zm7.0727 -3.0439l1.6742 0 2.1833 3.3638 0 -3.3638 1.6891 0 0 6.0806 -1.6891 0 -2.1725 -3.3383 0 3.3383 -1.685 0 0 -6.0806zm9.9362 3.7616l-0.6413 -2.1858 -0.6373 2.1858 1.2786 0zm0.3754 1.3153l-2.0415 0 -0.2809 1.0037 -1.8308 0 2.1792 -6.0806 1.9538 0 2.1806 6.0806 -1.8754 0 -0.285 -1.0037zm2.8315 -5.0769l1.6743 0 2.1833 3.3638 0 -3.3638 1.6891 0 0 6.0806 -1.6891 0 -2.1725 -3.3383 0 3.3383 -1.6851 0 0 -6.0806zm6.8229 0l1.7929 0 0 4.5828 2.7964 0 0 1.4978 -4.5893 0 0 -6.0806zm8.6833 3.7616l-0.6414 -2.1858 -0.6373 2.1858 1.2787 0zm0.3753 1.3153l-2.0414 0 -0.281 1.0037 -1.8308 0 2.1792 -6.0806 1.9538 0 2.1806 6.0806 -1.8754 0 -0.285 -1.0037zm5.5899 -1.1992l0 -1.2642 2.768 0 0 2.5922c-0.5293,0.378 -0.9981,0.6366 -1.4056,0.773 -0.4078,0.1365 -0.8913,0.2053 -1.4501,0.2053 -0.6886,0 -1.2486,-0.1241 -1.6823,-0.3695 -0.4343,-0.2456 -0.7707,-0.6119 -1.0087,-1.0986 -0.2384,-0.4872 -0.359,-1.0449 -0.359,-1.6749 0,-0.6639 0.1302,-1.2421 0.3915,-1.7329 0.2609,-0.4901 0.6437,-0.8632 1.1477,-1.117 0.3922,-0.1976 0.9221,-0.2945 1.5865,-0.2945 0.6398,0 1.1194,0.0608 1.4379,0.1827 0.3172,0.1214 0.5807,0.3101 0.7913,0.5663 0.2091,0.2546 0.3672,0.579 0.4725,0.9726l-1.7283 0.3227c-0.0715,-0.2292 -0.1934,-0.4046 -0.3631,-0.5266 -0.1689,-0.1213 -0.3864,-0.1826 -0.6495,-0.1826 -0.3927,0 -0.7067,0.1429 -0.9397,0.429 -0.2338,0.287 -0.3511,0.7391 -0.3511,1.3591 0,0.6582 0.1194,1.1282 0.355,1.41 0.2353,0.2814 0.5646,0.4234 0.987,0.4234 0.1998,0 0.3918,-0.0314 0.5726,-0.092 0.1821,-0.061 0.3914,-0.1642 0.625,-0.3101l0 -0.5734 -1.1976 0zm3.916 -3.8777l4.8013 0 0 1.2982 -3.0057 0 0 0.967 2.7882 0 0 1.2402 -2.7882 0 0 1.1977 3.0934 0 0 1.3775 -4.889 0 0 -6.0806zm-56.8532 42.7782l1.6819 0 2.1933 3.3638 0 -3.3638 1.6969 0 0 6.0806 -1.6969 0 -2.1825 -3.3384 0 3.3384 -1.6927 0 0 -6.0806z"/>
  <path class="fil2" d="M18.0113 28.809l4.0469 0c1.0987,0 1.9103,-0.2492 2.4348,-0.7536 0.5245,-0.5044 0.7839,-1.2877 0.7839,-2.3381 0,-1.0207 -0.2705,-1.7861 -0.817,-2.2905 -0.5466,-0.5044 -1.3692,-0.7536 -2.4678,-0.7536l-3.9808 0 0 6.1358zm-6.1282 13.9394c1.3985,-0.4721 2.7855,-0.5847 4.0212,-0.5723 0.7825,0.0078 1.4793,0.0623 2.107,0.1525l0 -8.3569 4.969 0c2.6722,0 4.7203,-0.7299 6.1448,-2.1837 1.4244,-1.4538 2.1366,-3.5427 2.1366,-6.2665 0,-2.5931 -0.7232,-4.5755 -2.1697,-5.9519 -1.4408,-1.3709 -3.5447,-2.0591 -6.305,-2.0591 -3.6926,0 -7.3852,0 -11.0779,0 0.145,0.2598 0.1595,0.5196 0.174,0.7794l0 24.4585zm44.4484 -0.6213c0,-7.9458 0,-15.8915 0,-23.8372 -0.0144,-0.2599 -0.029,-0.5198 -0.1739,-0.7796 2.4386,0 4.8772,0 7.3159,0 0.0116,0.2543 0.1312,0.4957 0.2958,0.7629l4.2822 6.9529c0.7755,1.2515 1.5103,2.4975 2.2042,3.7273 0.6938,1.2352 1.3468,2.4486 1.9649,3.6511 -0.0934,-1.7739 -0.1575,-3.4389 -0.2042,-4.9896 -0.0465,-1.5508 -0.07,-2.9166 -0.07,-4.0974 0,-1.753 0,-3.5059 0,-5.259 -0.0144,-0.2494 -0.029,-0.4988 -0.1739,-0.7482 2.1878,0 4.3757,0 6.5636,0 -0.2066,0.2511 -0.1712,0.5027 -0.1739,0.7538l0 23.4589c-3.1431,-0.9677 -3.8674,-3.1744 -8.6591,-3.4802l-3.2299 -5.1921 -4.0642 -6.0803c0.1225,1.529 0.2129,2.1193 0.2683,3.4358 0.0553,1.3169 0.0873,2.4868 0.0873,3.5042l0 5.6307c-1.8093,1.0294 -2.999,2.3214 -6.2331,2.586zm-17.6324 -10.4106l5.4332 0 -2.7684 -8.0376 -2.6648 8.0376zm-0.761 -14.2063c2.4403,0 4.8805,0 7.3207,0 -0.0581,0.253 0.0142,0.5059 0.0866,0.7589l9.0171 23.8913c-4.381,-0.1909 -5.258,-2.1386 -8.0341,-3.2271l-0.8492 -2.3878 -8.2938 0 -0.9616 2.8901c-2.1169,1.1524 -3.3082,2.7037 -7.5299,2.7392 3.0483,-7.9827 6.0964,-15.9655 9.1446,-23.9482 0.0767,-0.2388 0.1534,-0.4775 0.0996,-0.7164z"/>
 </g>
</svg>
